<?xml version="1.0" encoding="utf-8"?>
<!-- Generator: Adobe Illustrator 23.0.2, SVG Export Plug-In . SVG Version: 6.00 Build 0)  -->
<svg version="1.1" id="Layer_1" xmlns="http://www.w3.org/2000/svg" xmlns:xlink="http://www.w3.org/1999/xlink" x="0px" y="0px"
	 viewBox="0 0 148.3 25" style="enable-background:new 0 0 148.3 25;" xml:space="preserve">
<style type="text/css">
	.st0{fill:#FFFFFF;}
</style>
<g>
	<path class="st0" d="M35,14.9h2.9c0,1.2,1.3,1.4,2.1,1.4c1,0,1.5-0.3,1.5-0.9c0-0.6-0.6-0.8-1.7-1.1l-1.9-0.6
		c-0.9-0.3-2.6-1-2.6-3.2c0-2.3,1.7-3.7,4.5-3.7c2.6,0,4.5,1.3,4.5,4h-2.9c0-0.9-0.8-1.4-1.7-1.4s-1.4,0.3-1.4,0.9
		c0,0.6,0.4,0.7,1.2,1l1.9,0.6c1.9,0.6,3.1,1.3,3.1,3.3c0,2.2-1.4,3.7-4.6,3.7C37.1,19,35,17.6,35,14.9z"/>
	<path class="st0" d="M48.2,14.9V7h2.9v8c0,0.6,0.4,1.3,1.7,1.3s1.7-0.8,1.7-1.3V7h2.9v7.9c0,2.6-1.8,4.1-4.6,4.1
		C50,19,48.2,17.5,48.2,14.9z"/>
	<path class="st0" d="M61.9,7h2.8l2.7,4.7L70,7h2.8v11.7H70v-6.6l-1.7,3.2h-1.8l-1.7-3.2v6.6H62L61.9,7L61.9,7z"/>
	<path class="st0" d="M77.3,7h2.8l2.7,4.7L85.5,7h2.8v11.7h-2.8v-6.6l-1.7,3.2H82l-1.7-3.2v6.6h-2.8L77.3,7L77.3,7z"/>
	<path class="st0" d="M92.7,7h2.9v11.7h-2.9V7z"/>
	<path class="st0" d="M102.2,9.5H99V7h9.2v2.5H105v9.2h-2.9L102.2,9.5L102.2,9.5z"/>
</g>
<path class="st0" d="M12.5,0.1c-3.3,0-6.4,1.3-8.8,3.6C1.4,6,0,9.2,0,12.6s1.3,6.4,3.6,8.8C6,23.7,9.2,25,12.5,25s6.4-1.3,8.8-3.6
	c2.3-2.3,3.6-5.5,3.6-8.8s-1.3-6.4-3.6-8.8C19,1.5,15.9,0.1,12.5,0.1z M21,15c-0.4,0.8-1.9,3.5-4.5,5.1l-1.7-1.5v-0.1l-1.8,2
	c0,0-4.3-0.3-6-2.9c0,0,0.3,0.1,0.6,0.1c0.3,0,0.7-0.1,0.7-0.7c0-1.1,0-5.4,0-6c0-0.3-0.2-0.6-0.7-0.6s-1,0.3-1.8,1.1
	C3.8,13,3,14.7,3,14.7s-0.5-2.5,2.1-5.4s4.6-4.1,6.7-4.6c0,0-1.6,1-1.6,2.4c0,0.5,0,0.7,0.1,0.9s0.3,0.3,0.5,0.3s0.2,0,0.5-0.1v7.9
	c0,0,0,0.1,0.1,0.3c0.1,0.2,0.5,0.5,0.9,0.5c0.8,0,1.9-0.9,1.9-0.9s0-5.8,0-6.4s-0.5-1.5-1-1.7c0,0,0,0,0.2,0c0.3,0,1,0,1.4,0.3
	c0.1-0.1,1.8-2.1,5-2.7c0,0-1.7,2.1-2.3,3.1c-0.1,0-0.1,1.9-0.1,3.8c0,1.8,0,3.7,0.1,3.8c0,0,0.2,0.3,0.6,0.3c0.5,0,1.4-0.3,2.8-1.8
	C21.1,14.7,21,14.8,21,15z"/>
<g>
	<path class="st0" d="M114.6,18l3.7-3.7c1.4-1.4,2.4-2.4,2.4-3.9c0-1.4-0.8-2.4-2.3-2.4c-1.6,0-2.4,1.1-2.4,2.7h-1.4
		c0-2.5,1.6-4,3.8-4c2.4,0,3.7,1.6,3.7,3.6c0,2-1.4,3.3-2.8,4.7l-2.8,2.8h5.7v1.3h-7.6V18z"/>
	<path class="st0" d="M124.6,15.4v-4.6c0-2.5,1.5-4,4-4c2.4,0,4,1.5,4,4v4.6c0,2.5-1.5,4-4,4C126.2,19.4,124.6,17.9,124.6,15.4z
		 M131.2,15.5v-4.8c0-1.6-0.9-2.7-2.6-2.7c-1.6,0-2.6,1.1-2.6,2.7v4.8c0,1.5,0.9,2.7,2.6,2.7C130.2,18.2,131.2,17,131.2,15.5z"/>
	<path class="st0" d="M135.7,8.8h-1.2V8.1l1.7-1h0.9v12.1h-1.4V8.8z"/>
	<path class="st0" d="M142.2,18.7l2.9-4.6c-0.5,0.3-1.1,0.5-1.8,0.5c-2.1,0-3.6-1.4-3.6-3.8c0-2.5,1.5-4,4-4c2.5,0,4,1.5,4,4
		c0,1-0.3,2-1.1,3.3l-3.1,5.1h-1.3V18.7z M141,10.7c0,1.6,0.8,2.7,2.6,2.7c1.7,0,2.7-1,2.7-2.7c0-1.6-0.9-2.7-2.6-2.7
		C141.9,8,141,9.1,141,10.7z"/>
</g>
</svg>
